<svg width="500" height="144" xmlns="http://www.w3.org/2000/svg" xmlns:xlink="http://www.w3.org/1999/xlink">
 <g>
  <title>background</title>
  <rect fill="none" id="canvas_background" height="146" width="502" y="-1" x="-1"/>
 </g>
 <g>
  <title>Layer 1</title>
  <g id="svg_1">
   <defs transform="translate(-33.30500030517578,-174.5019989013672) ">
    <rect height="566.929" width="566.929" id="SVGID_1_"/>
   </defs>
   <clipPath transform="translate(-33.30500030517578,-174.5019989013672) " id="SVGID_2_">
    <use x="-33.305" y="-174.501999" id="svg_2" xlink:href="#SVGID_1_"/>
   </clipPath>
   <path id="svg_3" d="m38.493,144.498001c-26.04,0 -37.999,-16.552 -38.493,-17.257l1.96,-1.382c0.116,0.161 11.788,16.238 36.533,16.238c13.097,0 30.601,-11.926 47.528,-23.457c15.171,-10.339 29.503,-20.105 39.39,-20.105c2.062,0 3.053,1.038 3.523,1.91c2.362,4.382 -3.434,16.497 -9.057,26.411c7.211,-7.335 17.311,-15.251 27.315,-15.251c2.617,0 4.438,0.571 5.567,1.749c1.591,1.656 1.492,4.055 1.39,6.59c-0.126,3.002 -0.251,6.107 2.16,8.621c3.325,3.463 11.129,5.219 23.195,5.219c4.557,0 9.299,-0.364 14.095,-1.087l0.355,2.371c-4.911,0.741 -9.775,1.116 -14.45,1.116c-12.925,0 -21.078,-1.95 -24.924,-5.957c-3.122,-3.252 -2.959,-7.205 -2.83,-10.381c0.088,-2.099 0.162,-3.912 -0.722,-4.832c-0.644,-0.671 -1.934,-1.011 -3.836,-1.011c-17.001,0 -35.431,26.149 -35.614,26.414l-1.987,-1.346c7.955,-12.097 19.665,-32.974 17.231,-37.488c-0.163,-0.302 -0.469,-0.649 -1.411,-0.649c-9.147,0 -23.181,9.563 -38.039,19.688c-17.229,11.738 -35.042,23.876 -48.879,23.876" fill="#FFFFFF" clip-path="url(#SVGID_2_)"/>
   <path id="svg_4" d="m302.054,144.498001c-9.32,0 -16.358,-3.27 -20.917,-9.724c-4.014,-5.679 -6.049,-13.782 -6.049,-24.08c0,-5.094 0.513,-10.72 1.487,-16.719c-13.974,11.466 -29.541,21.873 -45.812,29.672c-6.32,3.027 -15.1,1.909 -20.869,-2.666c-4.914,-3.896 -6.858,-9.507 -5.473,-15.799l2.344,0.514c-1.179,5.349 0.461,10.109 4.619,13.404c5.089,4.035 12.804,5.035 18.343,2.382c16.925,-8.11 33.093,-19.038 47.461,-30.999c2.938,-15.638 8.855,-33.476 17.009,-50.78c8.633,-18.317 21.996,-39.703 31.246,-39.703c8.346,0 11.079,4.323 11.905,7.949c3.467,15.265 -21.395,52.832 -57.933,83.663c-1.232,6.684 -1.929,13.131 -1.929,19.082c0,9.793 1.886,17.431 5.608,22.696c4.083,5.778 10.463,8.708 18.958,8.708c14.252,0 24.593,-17.231 24.714,-28.984c-3.318,-1.049 -5.872,-2.357 -7.751,-3.557c-5.058,-3.23 -7.322,-6.952 -7.322,-9.211c0,-1.551 1.032,-2.591 2.566,-2.591c4.946,0 8.78,1.506 11.389,4.474c2.013,2.286 3.196,5.4 3.462,9.068c3.351,0.895 7.313,1.459 11.925,1.459c21.506,0 27.554,-3.984 33.402,-7.84c0.584,-0.383 1.161,-0.765 1.754,-1.142l1.297,-0.823l0.484,1.461c0.228,0.68 5.789,16.648 28.126,16.648c9.771,0 19.601,-3.767 30.983,-8.127c15.685,-6.009 35.203,-13.487 63.311,-14.657l0.098,2.398c-27.713,1.152 -47.029,8.552 -62.549,14.499c-11.607,4.446 -21.626,8.288 -31.843,8.288c-20.12,0 -27.784,-12.597 -29.812,-16.89c-0.177,0.117 -0.353,0.23 -0.527,0.348c-6.146,4.05 -12.5,8.237 -34.725,8.237c-4.635,0 -8.576,-0.546 -11.88,-1.365c-0.487,17.086 -15.027,30.707 -27.1,30.707m12.207,-44.345c-0.194,0.09 -0.245,0.828 0.577,2.19c1.475,2.439 5.26,5.939 11.788,8.195c-0.337,-2.729 -1.283,-5.025 -2.777,-6.726c-2.134,-2.428 -5.362,-3.659 -9.588,-3.659m11.183,-97.756c-11.271,0 -37.005,46.027 -45.316,85.605c34.733,-29.767 58.163,-65.079 54.882,-79.521c-0.931,-4.093 -4.059,-6.084 -9.566,-6.084" fill="#FFFFFF" clip-path="url(#SVGID_2_)"/>
   <path id="svg_5" d="m379.381,141.546001c-5.219,0 -9.498,-1.599 -12.372,-4.618c-2.611,-2.74 -3.99,-6.512 -3.99,-10.903c0,-12.777 11.22,-26.462 27.921,-26.462c4.604,0 8.368,1.548 10.889,4.48c2.263,2.631 3.456,6.257 3.456,10.489c-0.001,12.777 -10.639,27.014 -25.904,27.014m11.558,-39.583c-16.652,0 -25.521,13.976 -25.521,24.062c0,3.765 1.151,6.962 3.328,9.248c2.447,2.57 6.024,3.874 10.635,3.874c15.135,0 23.506,-14.553 23.506,-24.615c0,-3.65 -0.998,-6.737 -2.876,-8.925c-2.082,-2.42 -5.134,-3.644 -9.072,-3.644" fill="#FFFFFF" clip-path="url(#SVGID_2_)"/>
   <path id="svg_6" d="m207.87,142.511001c-5.218,0 -9.497,-1.599 -12.374,-4.619c-2.609,-2.74 -3.986,-6.509 -3.986,-10.9c0,-12.779 11.218,-26.462 27.919,-26.462c4.604,0 8.37,1.547 10.889,4.478c2.262,2.631 3.456,6.259 3.456,10.491c0.001,12.774 -10.638,27.012 -25.904,27.012m11.559,-39.584c-16.652,0 -25.521,13.977 -25.521,24.064c0,3.763 1.15,6.962 3.328,9.248c2.445,2.569 6.025,3.872 10.634,3.872c15.136,0 23.506,-14.554 23.506,-24.613c0,-3.653 -0.995,-6.738 -2.876,-8.925c-2.078,-2.421 -5.132,-3.646 -9.071,-3.646" fill="#FFFFFF" clip-path="url(#SVGID_2_)"/>
  </g>
 </g>
</svg>